<svg id="wordmark" xmlns="http://www.w3.org/2000/svg" viewBox="0 0 582.81 211.77"><title>wordmark</title><path d="M374.31,106.91c1.84-4.82,3.14-9.94,5.64-14.39C386.4,81,396.83,74.36,409,70.17a88.28,88.28,0,0,1,28.51-4.54c18.77-.1,37.54,0,56.31,0,.63,0,1.26,0,2.19.1-.41,1.72-.76,3.28-1.17,4.83-.93,3.5-2,7-2.81,10.49A1.69,1.69,0,0,1,490,82.58a27.69,27.69,0,0,0-3.41.06c-4.68.3-6.88,2.52-6.86,7.18,0,7.25.17,14.5.27,21.75l.57,37.31c0,1.75,0,3.51,0,5.26l.56.16,1.59-2.57c8.11-13.12,16.24-26.22,24.27-39.39a7.28,7.28,0,0,0,.92-4c-.31-5.88-.84-11.76-1.22-17.65s-1.76-7.33-7.47-8.13c-.34,0-.68-.13-1.24-.23,1.42-5.28,2.78-10.48,4.25-15.65a1.94,1.94,0,0,1,1.48-1.08q26.88-.06,53.75,0a3.65,3.65,0,0,1,.8.25c-.4,1.57-.79,3.13-1.2,4.69-.9,3.36-1.87,6.71-2.68,10.09-.33,1.4-.87,2-2.42,1.93a37.39,37.39,0,0,0-6.17.15c-4.21.48-6.26,2.67-6.32,6.9-.09,5.89,0,11.8,0,17.7.13,10.8.3,21.6.44,32.41,0,3,0,6,0,8.93l.52.18c.73-1.28,1.47-2.55,2.19-3.83,11-19.8,21.82-39.74,33.16-59.36C586.57,67.09,601.25,52.42,621,43.31a77.2,77.2,0,0,1,34.26-7.55c8.34.17,16.49,1.6,23.57,6.34,7.26,4.85,11.81,11.64,11.83,20.57,0,8.77-8.16,16.17-17.29,16.33-8.17.13-14.79-5.28-16.67-13.65-.3-1.32-.47-2.66-.72-4-.73-3.81-2-4.91-5.89-5.07a44.09,44.09,0,0,0-23.38,5.42c-10.62,5.77-18.91,14.17-25.44,24.12-7.46,11.41-14.35,23.2-21.32,34.92Q560.75,153,541.77,185.36A2.87,2.87,0,0,1,538.9,187c-8.25-.06-16.5-.09-24.75,0-1.83,0-2.39-.46-2.48-2.35-.64-14.27-1.41-28.53-2.15-42.8,0-.76-.15-1.52-.29-2.95-.69,1.09-1.09,1.68-1.46,2.29Q494.39,163.11,481,185.06a3.4,3.4,0,0,1-3.35,1.94c-8.53-.1-17.07,0-25.6,0h-2.34c-.23-4.24-.46-8.27-.68-12.3q-1.6-30.22-3.21-60.46c-.45-8.37-.92-16.75-1.53-25.11-.26-3.59-2-5.71-5.5-6.08-12.74-1.37-25.19-.4-36.5,6.34-9.8,5.86-13.79,15-13.44,26.1a17.77,17.77,0,0,0,5.34,11.79c2.61,2.73,5.86,3.32,9.42,2.58,2.31-.48,3.09-1.44,2.76-3.76-.36-2.52-1-5-1.54-7.5-1.86-9.3,2.09-17.18,10.32-20,11.57-4,23.72,4.11,22.67,16.78-1.35,16.32-12.32,28.1-28.93,30.32-15.9,2.13-29.11-6.43-33.76-21.87-.24-.81-.57-1.6-.85-2.4Z" transform="translate(-374.31 -35.75)"/><path d="M824.63,179.39c-4.83,1.94-9.43,4-14.17,5.65-7.79,2.75-15.84,4.22-24.08,2.79a28.2,28.2,0,0,1-8.92-3.24,11.47,11.47,0,0,1-6-12.83,137.73,137.73,0,0,1,4.08-14.54c2.49-8,5.15-15.95,7.66-23.95,1.12-3.58.47-4.53-3.24-4.79-2.33-.17-4.67,0-7.42,0,1-3,1.8-5.62,2.61-8.23,1.86-6,1.86-6,8.22-6.1q14.72-.24,29.42-.51c1.12,0,2.25,0,3.76,0-.94,3-1.75,5.69-2.62,8.36q-6.53,20.06-13.06,40.11c-.22.67-.35,1.37-.51,2.06-1.06,4.62.58,7,5.3,6.72a60.35,60.35,0,0,0,11.19-2.33c1.89-.5,3.58-1.77,5.47-2.34,3.41-1,5-3.27,6-6.63,2.36-8,5.1-16,7.66-23.94,1.93-6,1-7.28-5.24-7.3H826c1.51-4.58,2.87-8.9,4.38-13.17.17-.47,1.19-.9,1.82-.92,5.83-.18,11.65-.29,17.48-.39s11.94-.16,17.91-.23c.77,0,1.53,0,2.64,0-1.36,4.28-2.61,8.25-3.9,12.21-4.27,13.1-8.65,26.17-12.75,39.32a61,61,0,0,0-2.12,11.5,7.85,7.85,0,0,0,3,7.59c.49.37.69,1.13,1,1.7a6.52,6.52,0,0,1-1.84.64c-7.18,0-14.36.06-21.54,0-3.23,0-5.17-2.05-6.57-4.7A20.35,20.35,0,0,1,824.63,179.39Z" transform="translate(-374.31 -35.75)"/><path d="M957.08,164.7c.32,5-1.71,9.05-4.6,12.77-7.42,9.52-21.44,13.06-32.31,8a18,18,0,0,1-5.71-4.62c-1.13-1.32-1.83-1.49-3.28-.81a77.64,77.64,0,0,1-22.42,7.24c-6,.86-11.92.94-17.68-1.2-9-3.33-12.39-11-8.78-19.9,3.19-7.83,9.5-12.44,16.94-15.63,8-3.42,16.44-4.78,25-5.71a64,64,0,0,0,14.23-3.29c4.57-1.59,6.5-5.13,6.17-9.19a5.2,5.2,0,0,0-4.13-5.07c-5.69-1.35-10.9-.4-15.21,3.76-1.64,1.57-3,3.41-4.58,5.06-4.69,4.93-10.24,7.63-17.2,6.23-5.27-1.06-7.52-5.22-5.69-10.27a19,19,0,0,1,8.48-9.82c16.09-9.65,33.36-11.94,51.52-7.8a27.38,27.38,0,0,1,7.5,3.46c4.87,2.86,6.74,7.32,5.44,12.73-1.37,5.72-3.18,11.34-4.92,17-1.93,6.25-4,12.44-6,18.68-.94,3-.61,4.7,1.07,5.28,2.25.77,3.52-1,4.76-2.4a6.77,6.77,0,0,0,1.5-2.55c.45-1.81,1.49-2.28,3.23-2.15,2,.14,4,0,6,.07A3.18,3.18,0,0,1,957.08,164.7Zm-39.67-9.62c-4.32,0-14.16,2.11-17.68,3.84-4.15,2.05-7.22,5-8,9.8-.42,2.7.88,4.48,3.56,4.81a23.63,23.63,0,0,0,5.7,0C911.35,172.24,917.23,165.64,917.41,155.08Z" transform="translate(-374.31 -35.75)"/><path d="M704.45,107.23a37.55,37.55,0,0,1-6.11-1.6c-5.07-2.26-6.81-7.65-4.5-13.17,3.48-8.31,14.81-14,23.54-11.76,6.1,1.54,9,7.32,6.77,13.28C721.32,101.42,712.93,107,704.45,107.23Z" transform="translate(-374.31 -35.75)"/><path d="M775,90.22c1-3.21,2-6.43,3.26-10.21-3.67.26-7,0-10.09.8-8.9,2.24-17.79,4.57-27,5.11-3.44.2-5,1.35-5.73,4.62s-2,6.45-3.14,9.95H744.6c-.27.93-.45,1.6-.66,2.25q-5,15.32-9.93,30.61-5.6,17.11-11.24,34.2a6.32,6.32,0,0,1-6.36,4.74c-4.62.08-9.24.16-13.86.09s-5.34-.94-3.83-5.57q8.35-25.74,16.76-51.46c.28-.85.49-1.71.82-2.86-4,.23-7.61-.27-11.27,1.11-9,3.43-18.61,4.43-28.19,5.19-.73.06-1.85.45-2,1-1.5,4.13-2.81,8.32-4.28,12.82h12.36c-.48,1.49-.85,2.69-1.25,3.89q-5.17,15.9-10.37,31.8a5.29,5.29,0,0,1-5.36,4.05c-4.76,0-9.52.13-14.28.05-4-.07-5.16-1.49-4.07-5.37,1.36-4.85,3-9.61,4.51-14.43,2.17-7.06,4.66-14,6.35-21.21s-.63-11.21-7.14-14.67c-.75-.4-1.52-.78-2.3-1.11-6.49-2.83-13.36-3.18-20.28-3-11.94.24-23.25,2.87-33.57,9-4.23,2.53-7.79,5.76-9.5,10.58s.5,9.11,5.62,10.15c7.23,1.46,12.91-1.41,17.68-6.6,1.54-1.67,2.94-3.49,4.59-5a14.48,14.48,0,0,1,12-3.82c5.16.57,7.34,4.86,5.07,9.56a10.24,10.24,0,0,1-6.37,5.35,78.48,78.48,0,0,1-13,3.09c-8.51,1-16.91,2.42-24.77,6s-14.49,8.73-17.11,17.59a13.39,13.39,0,0,0,5,15.33,21.32,21.32,0,0,0,10.72,3.79c9.07,1,17.67-1,26.06-4.17,3.31-1.24,6.54-2.68,9.94-4.09,3.06,5.43,7.89,7.32,13.79,7.27,6.54-.06,13.08.08,19.62.08h99a10.23,10.23,0,0,0,1.92,0c.41-.08,1-.37,1.11-.7,1.48-4.36,2.89-8.73,4.42-13.44-2.08,0-3.84,0-5.59,0-6.14-.12-6.8-1-4.92-6.82ZM613.89,172.39c-3.7,1.18-7.39,2.09-11.29,1.58-2.94-.38-4.38-2.32-3.81-5.25a12.52,12.52,0,0,1,7-8.92c5.78-2.93,12.14-3.68,18.5-4.5C624.26,162.7,621,170.12,613.89,172.39Z" transform="translate(-374.31 -35.75)"/><path d="M451.43,231.21c1.65,3.1,3.55,4.71,5.95,4.71s4.15-1.5,4.15-3.36a5.62,5.62,0,0,0-2.3-4c-7.45-6.25-11.85-9.65-11.85-14.75s4.45-9.05,9.85-9.05c4.55,0,7.55,2.45,10.4,5.75l-5.1,4.5c-1.7-2.4-3.45-3.7-5.4-3.7s-3.05,1.05-3.05,2.5,1.05,2.3,2.1,3.2c6.7,5.9,12.05,8.7,12.05,15.25,0,6-4.5,10.21-11,10.21-5.25,0-8.9-2.55-11.55-7.8Z" transform="translate(-374.31 -35.75)"/><path d="M474.08,204.76h6.65v13c2.55-2.2,5-3.4,7.85-3.4,5,0,9.1,3.25,9.1,9.7v17.56H491V229c0-5.4-.65-8.6-4.55-8.6A5.26,5.26,0,0,0,482,223c-1.35,2.1-1.25,4.5-1.25,7.25v11.31h-6.65Z" transform="translate(-374.31 -35.75)"/><path d="M523.68,238.77a11,11,0,0,1-8.2,3.5c-6.75,0-12.65-5.8-12.65-14s5.6-14,12.5-14a11.4,11.4,0,0,1,8.35,3.6V215h6.65v26.56h-6.65Zm-14.15-10.51c0,4.55,3,7.91,7.15,7.91s7.3-3.11,7.3-8c0-4.65-3.1-7.8-7.3-7.8C512.28,220.41,509.53,223.91,509.53,228.26Z" transform="translate(-374.31 -35.75)"/><path d="M534.18,215H541l6.7,15.65,6.7-15.65h6.75l-11.3,26.56h-4.3Z" transform="translate(-374.31 -35.75)"/><path d="M589.93,236.42c-2.85,4.05-6.6,5.85-12.2,5.85-8.45,0-13.9-6.21-13.9-14,0-7.25,5.25-13.95,13.8-13.95s14.1,6,14.1,14.4c0,.6-.05.9-.05,1.5h-21.4a7.11,7.11,0,0,0,7.45,6.16,8.63,8.63,0,0,0,6.6-2.6ZM585,225c-.9-3.1-3.75-5-7.3-5a7.25,7.25,0,0,0-7.15,5Z" transform="translate(-374.31 -35.75)"/><path d="M611.28,205.66h6.85v35.91h-6.85Z" transform="translate(-374.31 -35.75)"/><path d="M650.73,236.72c-2.85,3.7-6.85,5.55-12.05,5.55-9,0-14.9-6.15-14.9-13.91,0-8,6.2-14.05,15-14.05,5.2,0,9.6,2.15,12.25,6.05l-5.55,3a8.36,8.36,0,0,0-6.65-3c-5.1,0-8.35,3.45-8.35,8.05s3.15,7.71,8,7.71a8.42,8.42,0,0,0,7-3.06Z" transform="translate(-374.31 -35.75)"/><path d="M681.93,236.42c-2.85,4.05-6.6,5.85-12.2,5.85-8.45,0-13.9-6.21-13.9-14,0-7.25,5.25-13.95,13.8-13.95s14.1,6,14.1,14.4c0,.6-.05.9-.05,1.5h-21.4a7.11,7.11,0,0,0,7.45,6.16,8.63,8.63,0,0,0,6.6-2.6ZM677,225c-.9-3.1-3.75-5-7.3-5a7.25,7.25,0,0,0-7.15,5Z" transform="translate(-374.31 -35.75)"/><path d="M703.83,205.66h6.85v13.5h12.1v-13.5h6.85v35.91h-6.85V225.86h-12.1v15.71h-6.85Z" transform="translate(-374.31 -35.75)"/><path d="M737.27,205.66h6.85v35.91h-6.85Z" transform="translate(-374.31 -35.75)"/><path d="M754.22,234.81l4.76,2.41-6,10.3-3.35-1.6Z" transform="translate(-374.31 -35.75)"/><path d="M815.38,223.71a18.68,18.68,0,1,1-37.36-.15,18.68,18.68,0,1,1,37.36.15Zm-30.46,0a11.79,11.79,0,1,0,23.56-.05c0-6.6-5-12.35-11.8-12.35C790.23,211.31,784.92,216.31,784.92,223.71Z" transform="translate(-374.31 -35.75)"/><path d="M822.22,205.66h8.36c4.55,0,7.75.55,10.15,2.9a10.41,10.41,0,0,1,2.9,7.5c0,4.7-2.35,7.9-6.9,9.55l8.5,16h-7.45l-8-15.21h-.65v15.21h-6.86Zm6.86,14.05h3.15c3.1,0,4.7-1.25,4.7-3.7s-1.65-3.65-4.9-3.65h-2.95Z" transform="translate(-374.31 -35.75)"/><path d="M853.22,234.81l4.75,2.41-6,10.3-3.35-1.6Z" transform="translate(-374.31 -35.75)"/><path d="M911.63,235.56c-4.75,4.66-8.85,6.91-15.6,6.91-11.26,0-19-7.85-19-18.91,0-11.35,8.81-18.8,19.1-18.8a20.67,20.67,0,0,1,15.66,7.2l-4.8,4.6c-3.25-3.45-6.8-5.25-11-5.25a12.08,12.08,0,0,0-12.26,12.25c0,7.4,5.31,12.36,12.4,12.36,4.46,0,7.46-1.81,10.86-5.21Z" transform="translate(-374.31 -35.75)"/><path d="M928.72,205.66h6.9l13.86,35.91h-7.1l-2.8-7.4H924.92l-2.95,7.4h-7.1Zm3.51,9.5-4.76,12.3H937Z" transform="translate(-374.31 -35.75)"/></svg>